<?xml version="1.0" encoding="utf-8"?>
<!-- Generator: Adobe Illustrator 14.0.0, SVG Export Plug-In . SVG Version: 6.00 Build 43363)  -->
<!DOCTYPE svg PUBLIC "-//W3C//DTD SVG 1.1//EN" "http://www.w3.org/Graphics/SVG/1.1/DTD/svg11.dtd">
<svg version="1.1" x="0px" y="0px" id="Layer_1" height="290px" width="250px" viewBox="-57 255.945 250 290"
	xmlns="http://www.w3.org/2000/svg" xmlns:xlink="http://www.w3.org/1999/xlink"
	enable-background="new -57 255.945 250 290" xml:space="preserve">
	<g id="XMLID_12_">
		<g>
			<g id="XMLID_10_">
				<g>
					<polygon fill="#FFFFFF" points="76.36,530.81 177.11,530.81 191.86,545.95 67.86,545.95 -56.14,545.95 -41.39,530.81 
					59.36,530.81 67.86,530.81 				" />
					<polygon fill="#FFFFFF" points="191.86,255.95 177.11,270.81 76.36,270.81 67.86,270.81 59.36,270.81 -41.39,270.81 
					-56.14,255.95 67.86,255.95 				" />
					<polygon fill="#FFFFFF" points="191.86,255.95 191.86,545.95 177.11,530.81 177.11,270.81 				" />
					<polygon fill="#FFFFFF"
						points="177.11,270.81 177.11,530.81 76.36,530.81 76.36,271.31 76.36,270.81 				" />
					<polygon fill="#FFFFFF" points="76.36,270.81 76.36,271.31 76.36,530.81 67.86,530.81 59.36,530.81 59.36,271.31 59.36,270.81 
					67.86,270.81 				" />
					<polygon fill="#FFFFFF"
						points="59.36,270.81 59.36,271.31 59.36,530.81 -41.39,530.81 -41.39,270.81 				" />
					<polygon fill="#FFFFFF" points="-41.39,270.81 -41.39,530.81 -56.14,545.95 -56.14,255.95 				" />
				</g>
				<g>
					<line fill="none" stroke="#231F20" stroke-width="2" stroke-linejoin="round" x1="59.36" y1="270.81"
						x2="59.36" y2="271.31" />

					<line fill="none" stroke="#231F20" stroke-width="2" stroke-linejoin="round" x1="-56.14" y1="545.95"
						x2="-56.14" y2="255.95" />

					<line fill="none" stroke="#231F20" stroke-width="2" stroke-linejoin="round" x1="-41.39" y1="530.81"
						x2="-56.14" y2="545.95" />

					<line fill="none" stroke="#231F20" stroke-width="2" stroke-linejoin="round" x1="-41.39" y1="270.81"
						x2="-56.14" y2="255.95" />
					<polyline fill="none" stroke="#231F20" stroke-width="2" stroke-linejoin="round" points="67.86,530.81 59.36,530.81 
					-41.39,530.81 -41.39,270.81 				" />
					<polyline fill="none" stroke="#231F20" stroke-width="2" stroke-linejoin="round" points="-41.39,270.81 59.36,270.81 
					67.86,270.81 				" />
					<polyline fill="none" stroke="#231F20" stroke-width="2" stroke-linejoin="round" points="59.36,271.31 59.36,530.81 
					59.36,531.31 				" />
					<line fill="none" stroke="#231F20" stroke-width="2" stroke-linejoin="round" x1="76.36" y1="271.31"
						x2="76.36" y2="270.81" />

					<line fill="none" stroke="#231F20" stroke-width="2" stroke-linejoin="round" x1="191.86" y1="255.95"
						x2="191.86" y2="545.95" />
					<polyline fill="none" stroke="#231F20" stroke-width="2" stroke-linejoin="round" points="-56.14,255.95 67.86,255.95 
					191.86,255.95 				" />
					<polyline fill="none" stroke="#231F20" stroke-width="2" stroke-linejoin="round" points="-56.14,545.95 67.86,545.95 
					191.86,545.95 177.11,530.81 				" />

					<line fill="none" stroke="#231F20" stroke-width="2" stroke-linejoin="round" x1="191.86" y1="255.95"
						x2="177.11" y2="270.81" />
					<polyline fill="none" stroke="#231F20" stroke-width="2" stroke-linejoin="round" points="177.11,270.81 177.11,530.81 
					76.36,530.81 67.86,530.81 				" />
					<polyline fill="none" stroke="#231F20" stroke-width="2" stroke-linejoin="round" points="67.86,270.81 76.36,270.81 
					177.11,270.81 				" />
					<polyline fill="none" stroke="#231F20" stroke-width="2" stroke-linejoin="round" points="76.36,531.31 76.36,530.81 
					76.36,271.31 				" />
				</g>
			</g>
		</g>
	</g>

</svg>